<?xml version="1.0" encoding="utf-8"?>
<!-- Generator: Adobe Illustrator 23.0.6, SVG Export Plug-In . SVG Version: 6.00 Build 0)  -->
<svg version="1.1" id="Laag_1" xmlns="http://www.w3.org/2000/svg" xmlns:xlink="http://www.w3.org/1999/xlink" x="0px" y="0px"
	 viewBox="0 0 454.1 423.9" style="enable-background:new 0 0 454.1 423.9;" xml:space="preserve">
<g>
	<path d="M126.9,0h7.3c12.3,0,20.6,8.8,24.7,26.4c-1.8,17.6-9.3,26.4-22.6,26.4c-2.2,3.1-4.1,8.2-5.9,15.3c0,28.6,20.3,52.6,60.8,72
		c13.1,11.4,25.1,24.6,35.8,39.7c21.9-30.2,44.6-49.1,68.1-56.7c19-20.8,28.5-39.1,28.5-54.9c-1.4-12.7-7.7-19.1-19.1-19.1
		c-6.3-6.9-9.4-14.4-9.4-22.6C299.3,8.8,307.6,0,319.9,0h7.3c16.8,0,27,15.2,30.5,45.5v5.6c0,19.8-8.9,39.9-26.7,60.5v3.8l3.8-1.8
		H354c49.5,0,82.3,19.5,98.4,58.5c1.2,4.9,1.8,10,1.8,15.3v7.6c0,25.5-17,41.8-51.1,49.1c-23.5,0-40.5-10.1-51.1-30.3
		c-1.2-2.5-1.8-4.4-1.8-5.6c7.4-4.5,11.2-10.2,11.2-17v-5.9c0-12.1-10.1-19.7-30.3-22.6h-9.4c-54.2,9.8-81.4,35.1-81.4,75.8
		c0,26.6,12.6,48.7,37.9,66.1v2.1c-3.3,6.3-8.4,9.4-15.3,9.4l-9.4-2.1l2.1,9.7v20.6c0,27.8-9.5,54.3-28.5,79.6
		c-19-25.3-28.5-51.8-28.5-79.6v-20.6l2.1-9.7l-13.2,2.1c-5.3-1.8-9.1-4.9-11.5-9.4v-2.1c25.3-16.6,37.9-39.9,37.9-69.9
		c0-31.5-22.1-54.9-66.4-70.2c-4.7-1.2-9.7-1.8-15-1.8h-9.4c-20.2,2.9-30.3,10.5-30.3,22.6v5.9c0,4.9,3.7,11.2,11.2,18.8
		c-10.2,22.7-27.8,34.1-52.9,34.1C17,236.9,0,220.5,0,195v-7.6c0-36.4,26.5-60.4,79.6-72c4.5-1.2,11.4-1.8,20.6-1.8h19.1l3.8,1.8
		v-3.8c-17.6-20.6-26.4-40.7-26.4-60.5v-5.6C100,15.2,110.1,0,126.9,0z"/>
</g>
</svg>
